<?xml version="1.0" encoding="iso-8859-1"?>
<!-- Generator: Adobe Illustrator 19.0.0, SVG Export Plug-In . SVG Version: 6.00 Build 0)  -->
<svg version="1.1" id="Capa_1" xmlns="http://www.w3.org/2000/svg" xmlns:xlink="http://www.w3.org/1999/xlink" x="0px" y="0px"
	 viewBox="0 0 66.816 66.816" style="enable-background:new 0 0 66.816 66.816;" xml:space="preserve">
<g>
	<path d="M39.168,4.637c-1.34-0.653-2.938-0.483-4.11,0.436l-12.491,9.789c-0.682-0.199-1.398-0.312-2.144-0.312H7.609
		C3.407,14.55,0,17.958,0,22.159v22.193c0,4.201,3.407,7.607,7.609,7.607h12.814c0.64,0,1.257-0.088,1.849-0.234l12.786,10.018
		c0.7,0.548,1.55,0.83,2.404,0.83c0.581,0,1.165-0.13,1.706-0.395c1.34-0.651,2.191-2.012,2.191-3.504V8.14
		C41.359,6.648,40.508,5.289,39.168,4.637z" fill="#171b1e"/>
	
</g>
<g>
</g>
<g>
</g>
<g>
</g>
<g>
</g>
<g>
</g>
<g>
</g>
<g>
</g>
<g>
</g>
<g>
</g>
<g>
</g>
<g>
</g>
<g>
</g>
<g>
</g>
<g>
</g>
<g>
</g>
</svg>
